<svg width="42" height="24" viewBox="0 0 42 24" fill="none" xmlns="http://www.w3.org/2000/svg">
<path d="M40.5 0H1.5C1.10218 0 0.720644 0.158036 0.43934 0.43934C0.158035 0.720645 0 1.10218 0 1.5V22.5C0 22.8978 0.158035 23.2794 0.43934 23.5607C0.720644 23.842 1.10218 24 1.5 24H40.5C40.8978 24 41.2794 23.842 41.5607 23.5607C41.842 23.2794 42 22.8978 42 22.5V1.5C42 1.10218 41.842 0.720645 41.5607 0.43934C41.2794 0.158036 40.8978 0 40.5 0ZM39 21H3V3H39V21ZM22.5 14.25C22.5 14.0511 22.421 13.8603 22.2803 13.7197C22.1397 13.579 21.9489 13.5 21.75 13.5H20.25C19.32 13.5009 18.4229 13.1563 17.7327 12.533C17.0426 11.9097 16.6087 11.0521 16.5152 10.1269C16.4218 9.20162 16.6754 8.27464 17.227 7.5259C17.7785 6.77715 18.5886 6.26006 19.5 6.075V6C19.5 5.60218 19.658 5.22064 19.9393 4.93934C20.2206 4.65804 20.6022 4.5 21 4.5C21.3978 4.5 21.7794 4.65804 22.0607 4.93934C22.342 5.22064 22.5 5.60218 22.5 6H24C24.3978 6 24.7794 6.15804 25.0607 6.43934C25.342 6.72064 25.5 7.10218 25.5 7.5C25.5 7.89782 25.342 8.27936 25.0607 8.56066C24.7794 8.84196 24.3978 9 24 9H20.25C20.0511 9 19.8603 9.07902 19.7197 9.21967C19.579 9.36032 19.5 9.55109 19.5 9.75C19.5 9.94891 19.579 10.1397 19.7197 10.2803C19.8603 10.421 20.0511 10.5 20.25 10.5H21.75C22.7446 10.4005 23.7379 10.7002 24.5115 11.3332C25.2851 11.9661 25.7755 12.8804 25.875 13.875C25.9745 14.8696 25.6748 15.8629 25.0418 16.6365C24.4089 17.4101 23.4946 17.9005 22.5 18C22.5 18.3978 22.342 18.7794 22.0607 19.0607C21.7794 19.342 21.3978 19.5 21 19.5C20.6022 19.5 20.2206 19.342 19.9393 19.0607C19.658 18.7794 19.5 18.3978 19.5 18H18C17.6022 18 17.2206 17.842 16.9393 17.5607C16.658 17.2794 16.5 16.8978 16.5 16.5C16.5 16.1022 16.658 15.7206 16.9393 15.4393C17.2206 15.158 17.6022 15 18 15H21.75C21.9489 15 22.1397 14.921 22.2803 14.7803C22.421 14.6397 22.5 14.4489 22.5 14.25ZM31.5 6C31.5 5.60218 31.658 5.22064 31.9393 4.93934C32.2206 4.65804 32.6022 4.5 33 4.5H36C36.3978 4.5 36.7794 4.65804 37.0607 4.93934C37.342 5.22064 37.5 5.60218 37.5 6C37.5 6.39782 37.342 6.77936 37.0607 7.06066C36.7794 7.34196 36.3978 7.5 36 7.5H33C32.6022 7.5 32.2206 7.34196 31.9393 7.06066C31.658 6.77936 31.5 6.39782 31.5 6ZM4.5 18C4.5 17.6022 4.65804 17.2206 4.93934 16.9393C5.22064 16.658 5.60218 16.5 6 16.5H9C9.39782 16.5 9.77936 16.658 10.0607 16.9393C10.342 17.2206 10.5 17.6022 10.5 18C10.5 18.3978 10.342 18.7794 10.0607 19.0607C9.77936 19.342 9.39782 19.5 9 19.5H6C5.60218 19.5 5.22064 19.342 4.93934 19.0607C4.65804 18.7794 4.5 18.3978 4.5 18Z" fill="#0462B4"/>
</svg>
