<svg width="309" height="60" viewBox="0 0 309 60" fill="none" xmlns="http://www.w3.org/2000/svg">
<path d="M56.6623 17.1774L48.8909 17.2022C49.1332 17.5751 49.3756 17.976 49.5993 18.3613L57.1905 18.3768C57.029 17.9946 56.8363 17.5534 56.6623 17.1774Z" fill="white"/>
<path d="M34.2832 18.0474C34.2801 18.0474 34.2801 18.0474 34.277 18.0443C33.9507 17.9169 33.6182 17.8019 33.2795 17.7024C33.2764 17.7024 33.2702 17.6993 33.2671 17.6993C33.6741 17.8298 34.0191 17.9479 34.2832 18.0474Z" fill="white"/>
<path d="M57.1873 18.3768L49.5961 18.3613C51.5257 21.7265 52.6351 25.6169 52.6257 29.7683C52.5978 42.3964 42.3032 52.6506 29.675 52.6226C17.0469 52.5947 6.79268 42.3001 6.82065 29.6719C6.84861 17.0437 17.1432 6.78957 29.7714 6.81754C34.2428 6.82686 38.4128 8.13194 41.9365 10.363C47.2314 10.363 52.2497 10.363 52.2497 10.363C52.2808 10.4003 52.315 10.4438 52.3461 10.4811H52.3523C46.9114 4.08931 38.8168 0.0187097 29.7838 6.57076e-05C13.3957 -0.0341149 0.0342463 13.2715 6.57075e-05 29.6564C-0.0341149 46.0444 13.2715 59.4059 29.6564 59.4401C46.0444 59.4743 59.4059 46.1687 59.4401 29.7838C59.4525 25.7443 58.6446 21.8943 57.1873 18.3768Z" fill="white"/>
<path d="M44.4751 17.2146C44.7889 17.5812 45.0841 17.9634 45.37 18.3519L49.596 18.3612C49.3753 17.9759 49.1299 17.5719 48.8875 17.2021L44.4751 17.2146Z" fill="white"/>
<path d="M33.1863 17.6714C33.2111 17.6776 33.2391 17.6869 33.264 17.6962C33.2391 17.6869 33.2111 17.6807 33.1863 17.6714Z" fill="white"/>
<path d="M34.4634 18.1126C34.4075 18.0909 34.3577 18.0722 34.2925 18.0474H34.2956C34.3515 18.0722 34.4075 18.0909 34.4634 18.1126Z" fill="white"/>
<path d="M34.2956 18.0505C34.2894 18.0474 34.2863 18.0474 34.2832 18.0443C34.2894 18.0474 34.2925 18.0505 34.2956 18.0505Z" fill="white"/>
<path d="M33.2639 17.6963C33.2639 17.6963 33.267 17.6963 33.2701 17.6994C33.267 17.6963 33.267 17.6963 33.2639 17.6963Z" fill="white"/>
<path d="M49.0739 29.5631C49.0739 29.445 49.0708 29.3269 49.0677 29.2088C49.0615 29.0224 49.0553 28.8391 49.046 28.6526C49.0398 28.5315 49.0336 28.4134 49.0242 28.2922C49.0087 28.0902 48.99 27.8882 48.9683 27.6863C48.959 27.593 48.9528 27.4967 48.9403 27.4035C48.9062 27.1269 48.8658 26.8504 48.8223 26.5769C48.8036 26.4558 48.7788 26.3377 48.757 26.2165C48.7259 26.0487 48.6949 25.884 48.6607 25.7193C48.6327 25.5888 48.6047 25.4583 48.5737 25.3309C48.5364 25.1755 48.4991 25.0233 48.4587 24.871C48.4245 24.7405 48.3903 24.61 48.3562 24.4826C48.3126 24.3241 48.2629 24.1657 48.2132 24.0103C48.1666 23.8549 48.1169 23.6996 48.0641 23.5473C47.9926 23.336 47.9211 23.1278 47.8403 22.9196C47.7875 22.7829 47.7316 22.6462 47.6788 22.5126C47.629 22.3883 47.5793 22.264 47.5265 22.1397C47.4643 21.9967 47.4022 21.8538 47.3369 21.714C47.2872 21.6021 47.2344 21.4934 47.1816 21.3846C47.1101 21.2386 47.0418 21.0925 46.9672 20.9465C46.9206 20.8564 46.874 20.7694 46.8242 20.6792C46.5384 20.1386 46.2245 19.6103 45.8889 19.1007C45.8454 19.0355 45.805 18.9702 45.7615 18.9081C45.6559 18.7496 45.544 18.5942 45.4322 18.4389C45.4135 18.4109 45.3918 18.3829 45.3731 18.355C45.0904 17.9665 44.7889 17.5843 44.4782 17.2177L56.662 17.1804C56.1183 16.012 55.5341 14.9431 54.8474 13.8618C54.0954 12.6748 53.157 11.4287 52.2496 10.3629C52.2496 10.3629 30.2902 10.3629 29.7619 10.3629C29.706 10.3629 28.7582 10.394 28.6122 10.4002C28.4289 10.4095 28.2486 10.4251 28.0653 10.4406C27.9224 10.453 27.7794 10.4655 27.6365 10.481C27.4563 10.4996 27.2792 10.5245 27.102 10.5494C26.956 10.568 26.8131 10.5898 26.667 10.6115C26.4961 10.6395 26.3283 10.6705 26.1574 10.7016C26.0083 10.7296 25.8591 10.7575 25.7131 10.7886C25.5515 10.8228 25.393 10.8601 25.2345 10.8974C25.0792 10.9347 24.9269 10.972 24.7716 11.0123C24.6224 11.0527 24.4764 11.0931 24.3303 11.1366C24.1687 11.1832 24.0103 11.2299 23.8518 11.2796C23.7151 11.3231 23.5783 11.3697 23.4416 11.4163C23.2769 11.4722 23.1122 11.5313 22.9507 11.5903C22.8233 11.6369 22.6959 11.6897 22.5716 11.7395C22.4038 11.8078 22.236 11.8731 22.0713 11.9445C21.9532 11.9974 21.8351 12.0502 21.717 12.103C21.5493 12.1807 21.3815 12.2584 21.2168 12.3392C21.1049 12.3951 20.993 12.4541 20.8812 12.5101C20.7165 12.5971 20.5487 12.681 20.3871 12.7711C20.2784 12.8301 20.1696 12.8954 20.0608 12.9575C19.8993 13.0508 19.7377 13.144 19.5823 13.2434C19.4736 13.3087 19.3679 13.3801 19.2623 13.4485C19.11 13.5479 18.9546 13.6474 18.8055 13.7499C18.6967 13.8245 18.5911 13.9022 18.4854 13.9767C18.3425 14.0793 18.1964 14.1849 18.0566 14.2906C17.9479 14.3745 17.8422 14.4584 17.7335 14.5423C17.5998 14.6479 17.4662 14.7536 17.3357 14.8654C17.2239 14.9587 17.1151 15.0519 17.0063 15.1482C16.8852 15.2538 16.7609 15.3626 16.6428 15.4714C16.5309 15.5739 16.4191 15.6827 16.3103 15.7883C16.1984 15.894 16.0897 15.9996 15.9809 16.1115C15.866 16.2264 15.7541 16.3445 15.6453 16.4626C15.5459 16.5682 15.4465 16.6739 15.3501 16.7795C15.2352 16.9069 15.1264 17.0375 15.0145 17.1649C14.9244 17.2705 14.8374 17.373 14.7504 17.4787C14.6386 17.6154 14.5298 17.7552 14.421 17.8982C14.3403 18.0007 14.2595 18.1033 14.1818 18.2089C14.073 18.355 13.9674 18.5041 13.8617 18.6564C13.7903 18.7589 13.7157 18.8646 13.6442 18.9671C13.5417 19.1225 13.4422 19.2778 13.3428 19.4363C13.2776 19.542 13.2092 19.6476 13.1439 19.7533C13.0476 19.9117 12.9544 20.0733 12.8643 20.238C12.8021 20.3468 12.74 20.4555 12.6809 20.5674C12.5939 20.729 12.51 20.8936 12.4261 21.0583C12.3671 21.1733 12.3081 21.2883 12.2521 21.4064C12.1745 21.5679 12.0999 21.7357 12.0284 21.9004C11.9725 22.0247 11.9197 22.149 11.8668 22.2733C11.7985 22.4349 11.7363 22.5965 11.6742 22.7611C11.6213 22.8948 11.5716 23.0284 11.5219 23.1651C11.466 23.3205 11.4132 23.4789 11.3603 23.6374C11.3106 23.7835 11.264 23.9295 11.2174 24.0755C11.1708 24.2278 11.1273 24.3801 11.0869 24.5323C11.0434 24.6908 10.9999 24.8462 10.9595 25.0046C10.9222 25.1507 10.888 25.2998 10.8569 25.449C10.8197 25.6168 10.7824 25.7846 10.7482 25.9524C10.7202 26.0953 10.6954 26.2382 10.6705 26.3843C10.6394 26.5614 10.6084 26.7354 10.5835 26.9156C10.5618 27.0586 10.5462 27.2015 10.5276 27.3445C10.5058 27.5247 10.4841 27.7049 10.4654 27.8882C10.453 28.0343 10.4406 28.1834 10.4312 28.3295C10.4188 28.5097 10.4064 28.6868 10.4002 28.867C10.3971 28.923 10.3908 28.9789 10.3908 29.0348C10.3877 29.1374 10.3908 29.2399 10.3877 29.3456C10.3846 29.4543 10.3784 29.5631 10.3784 29.6718C10.3784 29.7309 10.3815 29.7899 10.3815 29.849C10.3815 30.0199 10.3877 30.1908 10.394 30.3617C10.4002 30.517 10.4033 30.6755 10.4126 30.8309C10.4219 31.0049 10.4375 31.1758 10.4499 31.3498C10.4623 31.5021 10.4747 31.6543 10.4934 31.8066C10.512 31.9775 10.5338 32.1453 10.5555 32.3131C10.5773 32.4684 10.5959 32.6207 10.6208 32.7729C10.6456 32.9345 10.6767 33.093 10.7047 33.2546C10.7327 33.4131 10.7637 33.5715 10.7979 33.7269C10.829 33.8792 10.8663 34.0283 10.9004 34.1775C10.9408 34.3421 10.9781 34.5037 11.0216 34.6653C11.0589 34.8051 11.0993 34.9419 11.1397 35.0817C11.1894 35.2526 11.2391 35.4204 11.292 35.5882C11.3324 35.7156 11.3759 35.843 11.4194 35.9704C11.4784 36.1444 11.5406 36.3184 11.6027 36.4893C11.6462 36.6074 11.6959 36.7255 11.7425 36.8435C11.814 37.0207 11.8824 37.1947 11.96 37.3687C12.0067 37.4806 12.0595 37.5893 12.1092 37.6981C12.19 37.8752 12.2708 38.0492 12.3547 38.2232C12.4075 38.3288 12.4603 38.4314 12.5132 38.537C12.6033 38.7111 12.6934 38.8851 12.7866 39.056C12.8425 39.1585 12.9016 39.2579 12.9606 39.3574C13.0569 39.5252 13.1564 39.6961 13.2589 39.8608C13.3211 39.9602 13.3863 40.0596 13.4485 40.1591C13.551 40.3206 13.6566 40.4822 13.7654 40.6407C13.8338 40.7401 13.9052 40.8396 13.9767 40.939C14.0855 41.0913 14.1942 41.2404 14.3061 41.3896C14.3838 41.4921 14.4646 41.5915 14.5422 41.6941C14.6541 41.8339 14.766 41.9737 14.8809 42.1136C14.9679 42.2192 15.0581 42.3218 15.1482 42.4243C15.26 42.5517 15.3719 42.6822 15.4869 42.8065C15.5863 42.9122 15.6857 43.0178 15.7883 43.1235C15.9001 43.2384 16.012 43.3565 16.127 43.4684C16.2357 43.5771 16.3507 43.6828 16.4626 43.7884C16.5744 43.8941 16.6832 43.9966 16.7982 44.0992C16.9193 44.2079 17.0436 44.3136 17.1679 44.4192C17.2767 44.5124 17.3854 44.6056 17.4973 44.6989C17.6309 44.8076 17.7645 44.9133 17.9013 45.0158C18.01 45.0997 18.1188 45.1836 18.2275 45.2644C18.3705 45.3701 18.5134 45.4726 18.6594 45.572C18.7682 45.6466 18.877 45.7243 18.9857 45.7989C19.1349 45.8983 19.2871 45.9946 19.4394 46.091C19.5512 46.1593 19.66 46.2308 19.7719 46.2991C19.9272 46.3924 20.0826 46.4825 20.2411 46.5695C20.356 46.6347 20.4679 46.7 20.586 46.7621C20.7445 46.846 20.9029 46.9299 21.0645 47.0107C21.1857 47.0698 21.3038 47.1319 21.425 47.1909C21.5834 47.2655 21.745 47.337 21.9066 47.4085C22.034 47.4644 22.1614 47.5234 22.2919 47.5762C22.4504 47.6415 22.6089 47.7037 22.7673 47.7658C22.904 47.8186 23.0439 47.8714 23.1806 47.9212C23.3329 47.9771 23.4882 48.0268 23.6436 48.0796C23.7927 48.1294 23.9419 48.1791 24.091 48.2257C24.2402 48.2723 24.3893 48.3127 24.5385 48.3531C24.7001 48.3966 24.8586 48.4432 25.0201 48.4836C25.1631 48.5209 25.3091 48.5519 25.4552 48.5861C25.6261 48.6234 25.797 48.6638 25.9679 48.698C26.1077 48.726 26.2506 48.7508 26.3936 48.7757C26.5707 48.8068 26.7509 48.8378 26.9311 48.8627C27.071 48.8844 27.2139 48.9 27.3537 48.9186C27.5371 48.9404 27.7173 48.9621 27.9006 48.9808C28.0467 48.9932 28.1927 49.0056 28.3388 49.0149C28.519 49.0274 28.6992 49.0398 28.8825 49.0491C28.9385 49.0522 28.9944 49.0584 29.0503 49.0584C29.1529 49.0616 29.2554 49.0584 29.358 49.0616C29.4667 49.0647 29.5755 49.0709 29.6873 49.0709C29.7464 49.0709 29.8054 49.0678 29.8645 49.0678C30.0354 49.0678 30.2063 49.0616 30.3741 49.0553C30.5325 49.0491 30.6879 49.046 30.8433 49.0367C31.0173 49.0274 31.1913 49.0118 31.3622 48.9994C31.5144 48.987 31.6667 48.9745 31.819 48.9559C31.9899 48.9373 32.1577 48.9155 32.3255 48.8938C32.4777 48.872 32.6331 48.8534 32.7853 48.8285C32.9469 48.8036 33.1085 48.7726 33.2701 48.7415C33.4255 48.7135 33.5839 48.6825 33.7393 48.6514C33.8916 48.6203 34.0438 48.583 34.193 48.5457C34.3545 48.5084 34.5161 48.4681 34.6777 48.4246C34.8206 48.3873 34.9605 48.3469 35.1003 48.3065C35.2681 48.2568 35.4359 48.2101 35.6006 48.1573C35.7311 48.1169 35.8616 48.0703 35.989 48.0268C36.1599 47.9678 36.3308 47.9087 36.4986 47.8466C36.6198 47.8 36.741 47.7534 36.8622 47.7037C37.0362 47.6353 37.2071 47.5638 37.378 47.4924C37.4929 47.4426 37.6048 47.3898 37.7167 47.3401C37.8907 47.2624 38.0616 47.1816 38.2325 47.0977C38.3412 47.0449 38.45 46.989 38.5556 46.933C38.7266 46.846 38.8943 46.7559 39.0621 46.6658C39.1678 46.6068 39.2703 46.5477 39.376 46.4856C39.5407 46.3893 39.7054 46.296 39.8669 46.1935C39.9726 46.1282 40.0751 46.0599 40.1777 45.9946C40.333 45.8952 40.4884 45.7926 40.6438 45.687C40.7494 45.6155 40.852 45.5378 40.9576 45.4633C41.1037 45.3576 41.2497 45.252 41.3926 45.1432C41.5014 45.0624 41.6039 44.9785 41.7127 44.8946C41.8494 44.789 41.983 44.6802 42.1166 44.5684C42.2254 44.4751 42.3342 44.3819 42.4429 44.2887C42.5672 44.1799 42.6884 44.0743 42.8096 43.9624C42.9214 43.8599 43.0333 43.7511 43.1421 43.6455C43.2539 43.5398 43.3627 43.4311 43.4714 43.3223C43.5864 43.2074 43.6983 43.0893 43.8101 42.9712C43.9096 42.8655 44.009 42.7599 44.1053 42.6542C44.2203 42.5268 44.3322 42.3963 44.444 42.2658C44.531 42.1633 44.6211 42.0607 44.7082 41.9551C44.8231 41.8153 44.9319 41.6754 45.0406 41.5325C45.1183 41.43 45.1991 41.3305 45.2737 41.2249C45.3855 41.0757 45.4912 40.9235 45.5968 40.7712C45.6683 40.6687 45.7398 40.5692 45.8081 40.4667C45.9138 40.3082 46.0163 40.1497 46.1158 39.9882C46.181 39.8856 46.2463 39.7831 46.3084 39.6805C46.4079 39.5159 46.5011 39.3512 46.5943 39.1865C46.6533 39.0808 46.7155 38.9752 46.7714 38.8695C46.8615 38.7017 46.9454 38.5339 47.0324 38.363C47.0884 38.2512 47.1443 38.1393 47.2002 38.0274C47.281 37.8596 47.3556 37.6919 47.4302 37.5209C47.483 37.4029 47.5358 37.2848 47.5855 37.1636C47.6539 36.9989 47.7192 36.828 47.7844 36.6602C47.8341 36.5328 47.8838 36.4023 47.9305 36.2749C47.9895 36.1133 48.0423 35.9486 48.0982 35.7839C48.1449 35.6441 48.1915 35.5043 48.235 35.3645C48.2847 35.206 48.3282 35.0475 48.3717 34.8859C48.4121 34.7368 48.4556 34.5845 48.4929 34.4323C48.5302 34.28 48.5675 34.1246 48.6016 33.9693C48.6389 33.8077 48.6731 33.6492 48.7042 33.4845C48.7352 33.3354 48.7601 33.1831 48.785 33.0309C48.8129 32.8631 48.844 32.6922 48.8689 32.5244C48.8906 32.3752 48.9093 32.223 48.9279 32.0707C48.9497 31.8998 48.9683 31.7258 48.9869 31.5518C49.0025 31.3964 49.0118 31.241 49.0242 31.0857C49.0367 30.9148 49.0491 30.7439 49.0553 30.573C49.0584 30.5139 49.0646 30.4549 49.0646 30.3958C49.0677 30.2871 49.0646 30.1783 49.0677 30.0696C49.0708 29.967 49.0771 29.8645 49.0771 29.762C49.0771 29.6936 49.0739 29.6283 49.0739 29.5631ZM42.244 30.2747C42.2378 30.3834 42.2316 30.4922 42.2254 30.6009C42.2192 30.7035 42.2099 30.806 42.2005 30.9086C42.1912 31.0204 42.1757 31.1292 42.1633 31.2379C42.1508 31.3374 42.1384 31.4368 42.126 31.5362C42.1104 31.645 42.0918 31.7506 42.0731 31.8594C42.0545 31.9588 42.039 32.0614 42.0172 32.1608C41.9955 32.2634 41.9737 32.3659 41.952 32.4684C41.9302 32.571 41.9053 32.6735 41.8805 32.7729C41.8556 32.8693 41.8308 32.9656 41.8028 33.0619C41.7748 33.1676 41.7438 33.2732 41.7127 33.3758C41.6847 33.4659 41.6568 33.5529 41.6257 33.643C41.5915 33.7518 41.5542 33.8574 41.5169 33.9662C41.4859 34.0501 41.4548 34.1308 41.4237 34.2147C41.3802 34.3235 41.3398 34.4354 41.2932 34.5441C41.2621 34.6218 41.2279 34.6964 41.1938 34.7741C41.1441 34.8859 41.0943 34.9947 41.0415 35.1066C41.0073 35.178 40.97 35.2495 40.9359 35.321C40.8799 35.4328 40.824 35.5416 40.765 35.6503C40.7277 35.7187 40.6904 35.7871 40.65 35.8554C40.5878 35.9642 40.5288 36.0729 40.4635 36.1786C40.4232 36.2438 40.3828 36.3122 40.3393 36.3774C40.274 36.4831 40.2087 36.5856 40.1373 36.6882C40.0938 36.7534 40.0472 36.8187 40.0006 36.8839C39.9322 36.9834 39.8607 37.0828 39.7893 37.1791C39.7395 37.2444 39.6898 37.3096 39.6401 37.3749C39.5686 37.4681 39.4972 37.5613 39.4226 37.6515C39.3667 37.7198 39.3107 37.7851 39.2548 37.8503C39.1833 37.9342 39.1087 38.0212 39.0342 38.102C38.972 38.1704 38.9068 38.2387 38.8446 38.3071C38.7732 38.3848 38.6986 38.4625 38.624 38.537C38.5525 38.6085 38.4811 38.6769 38.4096 38.7452C38.3381 38.8136 38.2667 38.882 38.1952 38.9503C38.1175 39.0218 38.0367 39.0933 37.959 39.1616C37.8876 39.2238 37.8192 39.2828 37.7477 39.3449C37.6607 39.4164 37.5737 39.4848 37.4867 39.5562C37.4184 39.6091 37.35 39.665 37.2816 39.7178C37.1884 39.7893 37.0921 39.8577 36.9989 39.926C36.9305 39.9726 36.8653 40.0223 36.7969 40.069C36.6975 40.1373 36.5949 40.2026 36.4924 40.2709C36.4271 40.3144 36.3588 40.3579 36.2935 40.3983C36.1879 40.4636 36.0822 40.5257 35.9735 40.5879C35.9082 40.6252 35.8398 40.6656 35.7746 40.7028C35.6658 40.7619 35.554 40.8209 35.4421 40.88C35.3737 40.9141 35.3054 40.9514 35.2339 40.9856C35.1221 41.0415 35.0102 41.0913 34.8983 41.1441C34.8269 41.1783 34.7523 41.2093 34.6808 41.2435C34.5689 41.2901 34.4571 41.3367 34.3452 41.3834C34.2675 41.4144 34.1899 41.4455 34.1122 41.4735C34.0034 41.5139 33.8916 41.5543 33.7797 41.5915C33.6958 41.6195 33.615 41.6475 33.5311 41.6754C33.4223 41.7096 33.3136 41.7407 33.2048 41.7749C33.1147 41.7997 33.0246 41.8277 32.9345 41.8526C32.8288 41.8805 32.7232 41.9054 32.6175 41.9302C32.5212 41.952 32.4249 41.9768 32.3255 41.9986C32.2229 42.0204 32.1204 42.039 32.0178 42.0576C31.9153 42.0763 31.8096 42.0949 31.7071 42.1136C31.6077 42.1291 31.5082 42.1415 31.4088 42.1571C31.3 42.1726 31.1913 42.185 31.0825 42.1975C30.9831 42.2068 30.8837 42.2161 30.7842 42.2254C30.6724 42.2348 30.5636 42.2441 30.4517 42.2503C30.3492 42.2565 30.2467 42.2596 30.1441 42.2627C30.0354 42.2658 29.9266 42.2689 29.8147 42.2689C29.706 42.2689 29.5941 42.2689 29.4854 42.2658C29.3828 42.2627 29.2803 42.2627 29.1808 42.2565C29.0628 42.2503 28.9447 42.2441 28.8266 42.2348C28.7334 42.2285 28.6402 42.2223 28.547 42.213C28.4258 42.2006 28.3077 42.1881 28.1865 42.1726C28.0964 42.1602 28.0063 42.1509 27.9162 42.1384C27.7981 42.1198 27.68 42.1011 27.565 42.0825C27.4749 42.067 27.3848 42.0514 27.2947 42.0328C27.1828 42.011 27.071 41.9862 26.9591 41.9613C26.8659 41.9396 26.7727 41.9209 26.6794 41.8961C26.5738 41.8681 26.4681 41.8401 26.3625 41.8122C26.2662 41.7842 26.173 41.7593 26.0766 41.7314C25.9772 41.7003 25.8809 41.6692 25.7814 41.635C25.682 41.6009 25.5857 41.5698 25.4862 41.5356C25.393 41.5014 25.3029 41.4673 25.2128 41.4331C25.1102 41.3927 25.0108 41.3554 24.9114 41.3119C24.8244 41.2746 24.7405 41.2373 24.6566 41.2C24.554 41.1534 24.4515 41.1099 24.3521 41.0602C24.2713 41.0229 24.1936 40.9825 24.1128 40.9421C24.0103 40.8893 23.9077 40.8396 23.8083 40.7836C23.7306 40.7432 23.656 40.6997 23.5814 40.6562C23.482 40.6003 23.3826 40.5413 23.2831 40.4822C23.2086 40.4387 23.134 40.3921 23.0625 40.3455C22.9662 40.2834 22.8699 40.2243 22.7735 40.1591C22.699 40.1093 22.6275 40.0596 22.556 40.0068C22.4628 39.9416 22.3727 39.8794 22.2826 39.811C22.208 39.7551 22.1365 39.6992 22.0651 39.6432C21.9781 39.578 21.8942 39.5096 21.8103 39.4413C21.7357 39.3791 21.6642 39.317 21.5897 39.2548C21.512 39.1865 21.4312 39.1212 21.3566 39.0498C21.282 38.9814 21.2074 38.913 21.1329 38.8447C21.0614 38.7763 20.9899 38.711 20.9216 38.6427C20.8439 38.5681 20.7724 38.4904 20.6978 38.4127C20.6357 38.3475 20.5704 38.2822 20.5083 38.2139C20.4306 38.13 20.356 38.0461 20.2815 37.9591C20.2255 37.8938 20.1696 37.8286 20.1137 37.7633C20.0391 37.6732 19.9645 37.58 19.8899 37.4868C19.8402 37.4246 19.7905 37.3594 19.7408 37.2972C19.6662 37.1978 19.5947 37.0983 19.5233 36.9989C19.4798 36.9368 19.4332 36.8746 19.3928 36.8125C19.3213 36.7068 19.2529 36.6012 19.1815 36.4955C19.1411 36.4334 19.1007 36.3712 19.0634 36.3091C18.995 36.2003 18.9298 36.0885 18.8645 35.9766C18.8272 35.9145 18.7931 35.8523 18.7558 35.7902C18.6936 35.6783 18.6315 35.5602 18.5724 35.4453C18.5383 35.38 18.5041 35.3179 18.473 35.2526C18.4171 35.1376 18.3611 35.0195 18.3083 34.9046C18.2772 34.8362 18.2462 34.7679 18.2151 34.6995C18.1654 34.5845 18.1188 34.4695 18.0722 34.3515C18.0442 34.2769 18.0131 34.2054 17.9851 34.1309C17.9416 34.0159 17.9013 33.904 17.864 33.789C17.836 33.7083 17.808 33.6306 17.7832 33.5498C17.749 33.4379 17.7148 33.3261 17.6837 33.2142C17.6589 33.1272 17.634 33.0402 17.6092 32.9532C17.5812 32.8444 17.5532 32.7357 17.5284 32.6269C17.5066 32.5337 17.4849 32.4374 17.4631 32.3441C17.4414 32.2385 17.4227 32.1359 17.401 32.0303C17.3823 31.9278 17.3637 31.8283 17.3481 31.7258C17.3326 31.6232 17.3171 31.5207 17.3046 31.4213C17.2891 31.3156 17.2767 31.2069 17.2643 31.1012C17.2518 31.0018 17.2456 30.8992 17.2363 30.7967C17.227 30.6879 17.2176 30.5792 17.2114 30.4673C17.2052 30.3648 17.2021 30.2591 17.199 30.1566C17.1959 30.0478 17.1928 29.9391 17.1928 29.8303C17.1928 29.7184 17.1928 29.6097 17.1959 29.4978C17.199 29.3953 17.199 29.2959 17.2052 29.1933C17.2114 29.0752 17.2176 28.9572 17.227 28.8391C17.2332 28.7459 17.2394 28.6526 17.2487 28.5594C17.2611 28.4382 17.2736 28.3202 17.2891 28.2021C17.3015 28.112 17.3109 28.0187 17.3233 27.9286C17.3388 27.8106 17.3606 27.6956 17.3792 27.5806C17.3948 27.4874 17.4103 27.3973 17.4289 27.3041C17.4507 27.1922 17.4755 27.0834 17.5004 26.9747C17.5222 26.8815 17.5439 26.7851 17.5657 26.6919C17.5905 26.5863 17.6216 26.4837 17.6496 26.3812C17.6775 26.2849 17.7055 26.1854 17.7335 26.0891C17.7614 25.9928 17.7956 25.8964 17.8267 25.8032C17.8609 25.7007 17.895 25.6012 17.9292 25.4987C17.9603 25.4086 17.9945 25.3216 18.0287 25.2346C18.069 25.1289 18.1094 25.0264 18.1529 24.9238C18.1871 24.8431 18.2244 24.7592 18.2586 24.6784C18.3052 24.5727 18.3518 24.4671 18.4015 24.3614C18.4388 24.2837 18.4761 24.2092 18.5134 24.1346C18.5662 24.0289 18.6222 23.9202 18.6781 23.8176C18.7185 23.7462 18.7589 23.6747 18.7993 23.6032C18.8583 23.4976 18.9173 23.395 18.9795 23.2894C19.023 23.221 19.0665 23.1496 19.11 23.0812C19.1753 22.9787 19.2374 22.8792 19.3058 22.7798C19.3524 22.7114 19.399 22.6431 19.4456 22.5778C19.514 22.4815 19.5823 22.3852 19.6507 22.2888C19.7004 22.2205 19.7532 22.1552 19.806 22.0869C19.8775 21.9967 19.9459 21.9066 20.0204 21.8165C20.0764 21.7482 20.1354 21.6798 20.1914 21.6114C20.2628 21.5275 20.3343 21.4436 20.4089 21.3628C20.471 21.2945 20.5363 21.2261 20.6015 21.1578C20.673 21.0801 20.7445 21.0055 20.819 20.9309C20.8905 20.8595 20.962 20.7911 21.0334 20.7227C21.1049 20.6544 21.1764 20.586 21.2478 20.5177C21.3255 20.4462 21.4032 20.3778 21.484 20.3095C21.5555 20.2473 21.6238 20.1852 21.6984 20.1261C21.7823 20.0547 21.8693 19.9863 21.9563 19.9179C22.0278 19.862 22.0961 19.8061 22.1676 19.7533C22.2577 19.6849 22.3509 19.6165 22.4442 19.5513C22.5125 19.5016 22.5809 19.4518 22.6524 19.4052C22.7487 19.3369 22.8481 19.2747 22.9475 19.2095C23.0159 19.166 23.0843 19.1194 23.1557 19.0759C23.2583 19.0137 23.3608 18.9516 23.4665 18.8925C23.5379 18.8521 23.6063 18.8117 23.6778 18.7713C23.7834 18.7123 23.8891 18.6564 23.9978 18.6004C24.0693 18.5631 24.1439 18.5259 24.2153 18.4886C24.321 18.4357 24.4297 18.386 24.5385 18.3363C24.6162 18.3021 24.6908 18.2648 24.7716 18.2307C24.8772 18.1841 24.986 18.1406 25.0916 18.097C25.1755 18.0629 25.2563 18.0318 25.3402 18.0007C25.4458 17.9603 25.5484 17.9261 25.654 17.8889C25.7441 17.8578 25.8311 17.8267 25.9244 17.7987C26.0269 17.7677 26.1295 17.7366 26.232 17.7055C26.3283 17.6776 26.4246 17.6496 26.5241 17.6247C26.6235 17.5999 26.7198 17.575 26.8193 17.5502C26.9218 17.5253 27.0275 17.5004 27.1331 17.4787C27.2263 17.46 27.3227 17.4414 27.419 17.4228C27.5309 17.401 27.6396 17.3824 27.7546 17.3637C27.8478 17.3482 27.9379 17.3358 28.0311 17.3233C28.1461 17.3078 28.2642 17.2923 28.3823 17.2798C28.4724 17.2705 28.5656 17.2612 28.6557 17.255C28.7738 17.2456 28.895 17.2363 29.0131 17.227C29.1063 17.2208 29.1995 17.2177 29.2958 17.2146C29.4139 17.2115 29.532 17.2084 29.6501 17.2052C29.7246 17.2052 29.8023 17.2052 29.8769 17.2084C30.1037 17.2115 30.3274 17.2208 30.5512 17.2332C30.604 17.2363 30.6568 17.2394 30.7128 17.2425C30.9924 17.2643 31.269 17.2954 31.5393 17.3358C31.5548 17.3389 31.5704 17.342 31.5859 17.342C31.8594 17.3824 32.1297 17.4321 32.3938 17.4911C32.4094 17.4942 32.4249 17.4973 32.4435 17.5004C32.7232 17.5626 32.9998 17.6341 33.2701 17.7148C33.2452 17.7055 33.2173 17.6993 33.1924 17.69C33.6274 17.8143 34.0562 17.9634 34.4695 18.1312C34.4136 18.1095 34.3639 18.0908 34.2986 18.066C35.7559 18.6377 37.0797 19.4767 38.2107 20.5177C38.2138 20.5208 38.2201 20.527 38.2232 20.5301C38.6613 20.9371 39.0715 21.3722 39.4506 21.8383C39.4692 21.8631 39.4909 21.888 39.5096 21.9097C39.87 22.3572 40.1963 22.8295 40.4946 23.3267C40.5195 23.3702 40.5474 23.4137 40.5723 23.4572C40.7152 23.6996 40.8489 23.9481 40.9731 24.1998C40.9825 24.2216 40.9918 24.2402 41.0011 24.262C41.1161 24.495 41.2217 24.7343 41.3212 24.9767C41.3429 25.0295 41.3647 25.0823 41.3864 25.1351C41.489 25.3931 41.5822 25.6541 41.6692 25.9213C41.6816 25.9617 41.694 26.0021 41.7065 26.0425C41.7811 26.2849 41.8494 26.5272 41.9085 26.7758C41.9209 26.8255 41.9333 26.8752 41.9457 26.925C42.0079 27.2015 42.0638 27.4812 42.1073 27.7639C42.1135 27.8137 42.1198 27.8603 42.1291 27.91C42.1664 28.171 42.1974 28.432 42.2192 28.6992C42.2223 28.7396 42.2285 28.7769 42.2285 28.8173C42.2503 29.1063 42.2596 29.3984 42.2596 29.6936C42.2596 29.7837 42.2596 29.8738 42.2565 29.9639C42.2503 30.054 42.2503 30.1659 42.244 30.2747Z" fill="white"/>
<path d="M29.8894 17.1898C30.11 17.1929 30.3275 17.1991 30.5419 17.2147C30.5948 17.2178 30.6476 17.2209 30.7035 17.224C30.9832 17.2458 31.2597 17.2768 31.5301 17.3172C31.5456 17.3203 31.5611 17.3234 31.5767 17.3234C31.8501 17.3638 32.1205 17.4135 32.3846 17.4726C32.4001 17.4757 32.4157 17.4788 32.4343 17.4819C32.714 17.5441 32.9905 17.6155 33.2609 17.6963C33.236 17.6901 33.208 17.6808 33.1832 17.6715C33.208 17.6808 33.236 17.687 33.2609 17.6963C33.2671 17.6994 33.2733 17.6994 33.2795 17.7025C33.6182 17.802 33.9507 17.9169 34.2769 18.0443C34.2832 18.0474 34.2863 18.0474 34.2925 18.0505C34.3577 18.0754 34.4075 18.0941 34.4634 18.1158C34.4075 18.0941 34.3515 18.0754 34.2956 18.0537C34.5162 18.1407 34.7337 18.237 34.9512 18.3364L45.3701 18.3551C45.2738 18.2215 45.1712 18.0909 45.0718 17.9604C44.8791 17.7087 44.6803 17.4602 44.4752 17.2178L29.8894 17.1898Z" fill="white"/>
<path d="M33.2826 17.7025C33.2763 17.6994 33.2701 17.6994 33.2639 17.6963C33.267 17.6963 33.267 17.6963 33.2701 17.6994C33.2732 17.6994 33.2763 17.6994 33.2826 17.7025Z" fill="white"/>
<path d="M34.2926 18.0505C34.2864 18.0474 34.2833 18.0474 34.2771 18.0443C34.2802 18.0443 34.2802 18.0443 34.2833 18.0474C34.2864 18.0474 34.2895 18.0474 34.2926 18.0505Z" fill="white"/>
<path d="M68.0444 19.1039C69.1444 19.9305 70.0175 20.5271 71.941 20.5271C73.0192 20.5271 74.0042 19.8403 74.0042 18.7372C74.0042 17.0873 72.4444 17.0189 70.3593 16.559C66.9879 15.8257 65.2913 14.794 65.2913 11.5158C65.2913 9.1325 67.2644 6.76782 71.4376 6.76782C73.6158 6.76782 75.2658 7.29607 76.7356 8.23448C77.4005 8.64775 77.3073 9.51781 76.7356 10.391C76.0489 11.4443 75.5672 11.5158 74.8774 11.261C73.0441 10.5743 72.1492 10.2076 70.9808 10.2076C69.8559 10.2076 69.4209 10.8726 69.4209 11.5158C69.4209 12.7308 70.7726 12.939 72.5842 13.374C75.7723 14.1322 78.1339 15.2788 78.1339 18.7403C78.1339 21.8601 76.1172 24.1067 71.7359 24.1067C68.2961 24.1067 66.2546 22.6152 65.7046 22.0434C64.9029 21.2169 65.1546 20.5768 65.7046 19.8435C66.2546 19.1039 66.9195 18.2556 68.0444 19.1039Z" fill="white"/>
<path d="M84.5286 22.3852C84.5286 23.8301 83.8636 23.8767 83.267 23.8767C80.4922 23.8767 80.2405 23.8084 80.2405 22.4101C80.2405 21.6985 80.4238 18.992 80.4238 16.357C80.4238 15.0271 80.2871 13.5356 80.2871 12.389C80.2871 10.7825 81.067 10.5774 81.4803 10.5774C83.8885 10.5774 84.5286 10.624 84.5286 12.0689C84.5286 12.2305 84.4136 15.5553 84.4136 16.792C84.4167 19.9988 84.5286 21.6737 84.5286 22.3852Z" fill="white"/>
<path d="M88.6334 10.5743C89.8949 10.5743 90.9483 10.4594 90.9483 11.4226C90.9483 12.1093 90.9949 12.3175 91.5449 11.7893C92.0483 11.3294 93.0116 10.4594 94.5497 10.4594C96.5912 10.4594 98.7011 11.376 98.7011 15.7107C98.7011 16.3539 98.6545 17.0407 98.6545 17.8206C98.6545 19.1039 98.7446 21.1921 98.7446 22.1305C98.7446 23.9638 98.033 23.9203 96.6596 23.9203C94.5746 23.9203 94.528 23.4853 94.528 22.6836C94.528 22.407 94.6429 21.7421 94.6429 19.9771C94.6429 18.4172 94.6212 15.8723 94.6212 15.4839C94.6212 14.154 93.6797 13.6723 92.8562 13.6723C90.8147 13.6723 90.9514 15.4839 90.9514 17.9604C90.9514 19.9771 91.0882 22.2952 91.0882 22.6618C91.0882 23.5785 90.9266 23.9234 88.68 23.9234C87.4184 23.9234 86.8684 23.9234 86.8684 22.5935C86.8684 22.1336 87.0517 19.887 87.0517 17.2054C87.0517 16.5186 86.8684 13.1689 86.8684 12.389V11.7458C86.8684 10.7142 87.7633 10.5743 88.6334 10.5743Z" fill="white"/>
<path d="M105.304 10.3692C107.116 10.3692 107.803 11.2175 108.194 11.7457C108.356 11.9756 108.402 12.1341 108.561 12.1341C108.698 12.1341 108.698 11.7675 108.698 11.2175C108.698 10.1641 108.583 8.55759 108.583 7.73104C108.583 6.46947 109.269 6.28613 110.233 6.28613C112.548 6.28613 112.846 6.60619 112.846 7.56946C112.846 7.63782 112.616 11.9042 112.616 14.5858C112.616 15.0892 112.892 21.0055 112.892 22.3821C112.892 23.7586 112.113 23.8736 111.563 23.8736H110.463C109.521 23.8736 108.903 23.7586 108.903 23.0253V22.612C108.903 22.3137 108.788 22.1086 108.604 22.3137C107.641 23.392 107.253 24.0569 105.003 24.0569C101.998 24.0569 100.463 20.9838 100.463 17.5222C100.463 16.5372 100.463 16.1705 100.485 15.779C100.603 13.3957 101.293 10.3692 105.304 10.3692ZM108.766 16.9505C108.766 16.7671 108.766 16.5838 108.744 16.4222C108.654 14.794 108.079 13.6722 106.336 13.6722C104.319 13.6722 104.273 15.6671 104.273 17.0437C104.273 18.7652 104.524 20.5519 106.429 20.5519C108.377 20.5488 108.766 19.1505 108.766 16.9505Z" fill="white"/>
<path d="M119.729 22.3853C119.729 23.8302 119.064 23.8768 118.467 23.8768C115.692 23.8768 115.44 23.8084 115.44 22.4101C115.44 21.6986 115.624 18.9921 115.624 16.3571C115.624 15.0271 115.487 13.5356 115.487 12.389C115.487 10.7825 116.267 10.5774 116.68 10.5774C119.088 10.5774 119.729 10.6241 119.729 12.069C119.729 12.2305 119.614 15.5554 119.614 16.7921C119.614 19.9989 119.729 21.6737 119.729 22.3853ZM115.487 7.34272C115.487 5.87606 116.199 5.8512 116.885 5.8077C117.23 5.78594 118.215 5.78594 118.492 5.8077C119.387 5.87606 119.8 6.4043 119.8 7.64102C119.8 9.08592 119.412 9.56756 117.852 9.56756C117.348 9.56756 117.072 9.56756 116.683 9.54581C115.99 9.4992 115.487 9.2009 115.487 7.34272Z" fill="white"/>
<path d="M127.683 24.1253C126.605 24.1253 125.3 23.9202 124.265 23.3236C122.705 22.4287 121.674 20.4804 121.674 17.6154C121.674 13.9705 122.59 10.5059 127.773 10.5059C129.308 10.5059 130.893 11.1025 131.443 11.6525C131.903 12.1341 131.695 12.7991 131.396 13.2341C131.235 13.5106 130.778 14.0358 130.455 14.2657C130.02 14.564 129.675 14.4491 129.402 14.3123C128.988 14.1072 128.69 13.9239 127.752 13.9239C126.03 13.9239 125.62 15.4372 125.62 17.0872C125.62 19.197 126.033 20.8004 127.708 20.8004C128.625 20.8004 129.221 20.6171 129.635 20.3654C130.185 20.0205 130.576 20.3188 130.871 20.642C131.191 21.0086 131.4 21.2386 131.514 21.4219C131.813 21.9035 131.698 22.4069 131.424 22.7301C130.598 23.7369 129.221 24.1253 127.683 24.1253Z" fill="white"/>
<path d="M132.341 17.3638C132.341 15.9407 132.618 14.6138 132.891 13.6941C133.373 12.2026 134.954 10.391 138.624 10.391C141.719 10.391 143.074 12.156 143.509 12.9825C144.105 14.0607 144.519 15.7573 144.519 17.1556C144.519 19.6788 143.807 24.1254 138.466 24.1254C134.426 24.1254 132.341 21.6737 132.341 17.3638ZM136.741 14.5641C136.396 15.0924 136.238 15.9624 136.238 17.339C136.238 18.3022 136.331 19.1288 136.673 19.7005C136.971 20.2288 137.499 20.5488 138.348 20.5488C139.174 20.5488 139.724 20.4339 140.066 19.9771C140.454 19.4737 140.594 18.557 140.594 16.9288C140.594 15.8754 140.389 15.1856 140.112 14.7288C139.541 13.8122 138.646 13.8122 138.348 13.8122C137.614 13.8308 137.086 14.039 136.741 14.5641Z" fill="white"/>
<path d="M146.694 22.5219C146.19 22.1086 146.097 21.742 146.166 21.3753C146.234 21.0552 146.439 20.5487 146.945 20.0454C147.219 19.7937 147.564 19.5855 147.955 19.5855C148.667 19.5855 150.087 20.7787 151.647 20.7787C152.219 20.7787 153.023 20.4586 153.023 19.7688C153.023 18.8988 151.488 18.7838 150.364 18.4855C147.682 17.7988 146.259 16.6522 146.259 14.4056C146.259 11.6991 148.689 10.3691 151.119 10.3691C153.297 10.3691 154.627 10.8508 155.27 11.4008C155.637 11.6773 155.82 11.9974 155.798 12.364C155.776 12.7991 155.522 13.464 155.087 13.8991C154.813 14.1508 154.49 14.4025 153.893 14.2875C153.365 14.1725 152.243 13.5075 151.028 13.5075C150.547 13.5075 149.997 13.6691 149.997 14.2191C149.997 14.6075 150.019 14.9991 151.97 15.3875C153.278 15.7075 156.671 16.2358 156.671 19.5389C156.671 22.8854 154.493 24.1719 151.488 24.1719C148.919 24.1719 147.474 23.1869 146.694 22.5219Z" fill="white"/>
<path d="M64.3278 43.4435C64.4428 42.9402 66.301 37.7105 66.7111 36.2905C67.0996 34.9388 68.7962 29.4109 69.0044 28.7708C69.2343 28.084 69.7843 27.6925 70.6792 27.6459C71.8942 27.5775 72.9507 27.5527 73.569 27.5775C74.7374 27.6241 75.1506 27.9442 75.5173 28.8609C75.7473 29.4109 77.0523 34.134 77.7173 36.2905C78.7023 39.4786 80.1255 43.0303 80.1721 43.3068C80.3337 44.2701 79.852 44.4534 78.4972 44.5C76.6391 44.5684 76.0891 44.3167 75.769 43.3534C75.654 43.0085 75.1973 41.4952 75.0823 41.2218C74.899 40.7868 74.3956 40.7184 73.6591 40.7184H72.4442C71.9843 40.7184 71.5741 40.6967 71.2043 40.6967C70.356 40.6967 69.7128 40.7868 69.486 41.3399C69.3244 41.7283 69.1659 42.1882 69.051 42.6232C68.6159 44.2514 68.271 44.5031 66.7826 44.5031C64.9027 44.5 64.1694 44.3167 64.3278 43.4435ZM70.5425 36.567C70.3809 37.3004 70.4058 37.4837 71.1391 37.5521C71.4156 37.5738 71.9656 37.5987 72.4473 37.5987C72.9755 37.5987 73.0656 37.5987 73.4571 37.5769C74.3054 37.5303 73.8922 36.9586 73.6622 36.0636C73.6156 35.8803 73.134 33.817 72.5622 31.9589C72.4721 31.6606 72.149 31.5922 72.0122 31.9589C71.6425 32.9656 70.8408 35.2371 70.5425 36.567Z" fill="white"/>
<path d="M86.0451 30.949C87.8566 30.949 88.5434 31.7973 88.9349 32.3255C89.0965 32.5555 89.14 32.714 89.3016 32.714C89.4383 32.714 89.4383 32.3473 89.4383 31.7973C89.4383 30.7439 89.3233 29.1374 89.3233 28.3109C89.3233 27.0493 90.01 26.866 90.9733 26.866C93.2882 26.866 93.5866 27.186 93.5866 28.1493C93.5866 28.2177 93.3566 32.484 93.3566 35.1656C93.3566 35.669 93.6332 41.5854 93.6332 42.9619C93.6332 44.3385 92.8532 44.4534 92.3032 44.4534H91.2032C90.2617 44.4534 89.6434 44.3385 89.6434 43.6051V43.1919C89.6434 42.8936 89.5284 42.6885 89.3451 42.8936C88.3818 43.9718 87.9934 44.6368 85.7437 44.6368C82.7389 44.6368 81.2039 41.5636 81.2039 38.1021C81.2039 37.117 81.2039 36.7504 81.2256 36.3588C81.3437 33.9755 82.0304 30.949 86.0451 30.949ZM89.5066 37.5303C89.5066 37.347 89.5066 37.1636 89.4849 37.0021C89.3948 35.3738 88.8199 34.2521 87.0767 34.2521C85.0601 34.2521 85.0134 36.247 85.0134 37.6235C85.0134 39.345 85.2651 41.1317 87.1699 41.1317C89.1151 41.1286 89.5066 39.7303 89.5066 37.5303Z" fill="white"/>
<path d="M115.074 43.1018C115.074 44.6834 114.02 44.5001 112.184 44.5001C111.497 44.5001 110.876 44.3385 110.876 43.2385C110.876 42.9184 110.944 42.2535 110.944 40.5569C110.944 34.9637 110.807 34.1838 109.111 34.1838C107.896 34.1838 107.299 34.8705 107.299 35.8804C107.299 36.8436 107.551 41.8651 107.551 43.2634C107.551 43.9967 107.551 44.4783 105.373 44.4783C103.881 44.4783 103.399 44.4783 103.399 43.31L103.446 40.5569C103.446 35.1688 103.561 34.3205 101.933 34.3205C100.028 34.3205 100.006 35.9705 100.006 38.8137C100.006 40.8769 100.143 43.0086 100.143 43.3535C100.143 44.6368 99.363 44.5001 97.048 44.5001C96.4296 44.5001 95.9698 44.3634 95.9698 43.4218C95.9698 42.8718 96.0847 36.7504 96.0847 35.7405C96.0847 34.5256 96.0381 33.4939 95.9946 33.034C95.9729 32.714 95.948 32.3691 95.948 32.1391C95.948 31.8191 96.0164 31.1759 96.933 31.1759C97.2779 31.1759 97.7347 31.1976 98.1946 31.1976C98.4929 31.1976 98.7663 31.1759 99.0646 31.1759C100.028 31.1759 100.075 31.7942 100.075 32.2292C100.075 32.7109 100.143 32.8259 100.556 32.4343C100.991 31.9993 101.793 31.0826 103.676 31.0826C104.686 31.0826 105.534 31.4276 106.267 32.3908C106.473 32.6891 106.749 32.5742 107.094 32.3442C107.691 31.9309 108.654 31.0826 110.602 31.0826C112.687 31.0826 115.005 31.9309 115.005 36.2874C115.005 37.2724 114.983 38.3973 114.983 39.4507C115.005 41.0603 115.074 42.4834 115.074 43.1018Z" fill="white"/>
<path d="M121.655 42.9619C121.655 44.4068 120.99 44.4534 120.393 44.4534C117.619 44.4534 117.367 44.385 117.367 42.9867C117.367 42.2752 117.55 39.5687 117.55 36.9337C117.55 35.6037 117.414 34.1122 117.414 32.9656C117.414 31.3591 118.193 31.154 118.607 31.154C121.015 31.154 121.655 31.2007 121.655 32.6456C121.655 32.8071 121.54 36.132 121.54 37.3687C121.54 40.5786 121.655 42.2534 121.655 42.9619ZM117.414 27.9224C117.414 26.4558 118.125 26.4309 118.812 26.3874C119.157 26.3657 120.142 26.3657 120.418 26.3874C121.313 26.4558 121.727 26.984 121.727 28.2207C121.727 29.6656 121.338 30.1473 119.778 30.1473C119.275 30.1473 118.998 30.1473 118.61 30.1255C117.917 30.0758 117.414 29.7775 117.414 27.9224Z" fill="white"/>
<path d="M125.76 31.154C127.021 31.154 128.075 31.0391 128.075 32.0023C128.075 32.6891 128.121 32.8972 128.671 32.369C129.175 31.9091 130.138 31.0391 131.676 31.0391C133.718 31.0391 135.828 31.9557 135.828 36.2904C135.828 36.9337 135.781 37.6204 135.781 38.4003C135.781 39.6836 135.871 41.7718 135.871 42.7102C135.871 44.5435 135.159 44.5 133.786 44.5C131.701 44.5 131.654 44.065 131.654 43.2633C131.654 42.9867 131.769 42.3218 131.769 40.5568C131.769 38.9969 131.748 36.452 131.748 36.0636C131.748 34.7337 130.806 34.252 129.983 34.252C127.941 34.252 128.078 36.0636 128.078 38.5401C128.078 40.5568 128.215 42.8749 128.215 43.2415C128.215 44.1582 128.053 44.5031 125.806 44.5031C124.545 44.5031 123.995 44.5031 123.995 43.1732C123.995 42.7133 124.178 40.4667 124.178 37.7851C124.178 37.0983 123.995 33.7487 123.995 32.9687V32.3255C123.995 31.2908 124.887 31.154 125.76 31.154Z" fill="white"/>
<path d="M142.636 42.9619C142.636 44.4068 141.971 44.4534 141.374 44.4534C138.599 44.4534 138.348 44.385 138.348 42.9867C138.348 42.2752 138.531 39.5687 138.531 36.9337C138.531 35.6037 138.394 34.1122 138.394 32.9656C138.394 31.3591 139.174 31.154 139.587 31.154C141.996 31.154 142.636 31.2007 142.636 32.6456C142.636 32.8071 142.521 36.132 142.521 37.3687C142.521 40.5786 142.636 42.2534 142.636 42.9619ZM138.394 27.9224C138.394 26.4558 139.106 26.4309 139.793 26.3874C140.137 26.3657 141.122 26.3657 141.399 26.3874C142.294 26.4558 142.707 26.984 142.707 28.2207C142.707 29.6656 142.319 30.1473 140.759 30.1473C140.256 30.1473 139.979 30.1473 139.591 30.1255C138.898 30.0758 138.394 29.7775 138.394 27.9224Z" fill="white"/>
<path d="M145.317 43.1017C144.814 42.6885 144.721 42.3218 144.789 41.9551C144.857 41.6351 145.063 41.1286 145.569 40.6252C145.846 40.3735 146.187 40.1653 146.579 40.1653C147.29 40.1653 148.711 41.3585 150.27 41.3585C150.842 41.3585 151.647 41.0385 151.647 40.3486C151.647 39.4786 150.112 39.3636 148.987 39.0653C146.305 38.3786 144.882 37.232 144.882 34.9854C144.882 32.2789 147.312 30.949 149.742 30.949C151.92 30.949 153.25 31.4306 153.894 31.9806C154.26 32.2572 154.444 32.5772 154.422 32.9439C154.4 33.3789 154.145 34.0439 153.71 34.4789C153.437 34.7306 153.114 34.9823 152.517 34.8673C151.989 34.7523 150.867 34.0874 149.652 34.0874C149.17 34.0874 148.62 34.249 148.62 34.799C148.62 35.1874 148.642 35.5789 150.594 35.9673C151.902 36.2874 155.295 36.8156 155.295 40.1187C155.295 43.4653 153.117 44.7517 150.112 44.7517C147.542 44.7517 146.097 43.7667 145.317 43.1017Z" fill="white"/>
<path d="M162.24 34.5722C161.805 34.5722 161.736 34.6623 161.736 35.1688C161.736 37.1854 161.736 38.882 161.783 39.6868C161.851 40.9484 162.013 41.0634 162.541 41.0634H162.703C163.734 41.11 163.849 41.5232 163.849 42.7134C163.849 44.3198 163.368 44.4566 162.243 44.4566C161.876 44.4566 158.94 44.6616 158.023 43.1266C157.588 42.3933 157.588 41.1317 157.588 40.445C157.588 37.9902 157.657 36.7535 157.657 35.9736C157.657 35.2402 157.747 34.5753 157.197 34.5753C156.28 34.5753 156.187 33.9787 156.187 32.947C156.187 31.8222 156.323 31.4555 156.83 31.4555C156.992 31.4555 156.992 31.4773 157.38 31.4773C157.495 31.4773 157.61 31.4555 157.61 31.2007C157.632 30.0541 157.588 30.0075 157.588 29.5041C157.588 28.3575 158.735 28.1959 159.446 28.1959C161.51 28.1959 161.786 28.5843 161.786 29.8459C161.786 30.3058 161.74 30.4891 161.74 31.1976C161.74 31.4742 162.016 31.4959 162.29 31.4959C162.634 31.4959 162.886 31.4742 163.048 31.4742C163.849 31.4742 163.918 32.2541 163.918 32.8942C163.918 33.8575 163.871 34.5224 163.091 34.5691H162.24V34.5722Z" fill="white"/>
<path d="M173.637 35.0973H172.401C171.254 35.0973 170.107 35.6939 170.039 37.2072C170.017 37.8038 170.017 38.5837 170.017 39.3637C170.017 41.2436 170.107 42.9184 170.107 43.2602C170.107 44.2919 169.694 44.5218 167.724 44.5218C166.441 44.5218 165.934 44.1769 165.934 43.2602C165.934 42.6885 166.049 36.7721 166.049 35.7623C166.049 33.8575 165.981 33.5623 165.981 32.5524C165.981 31.6823 166.279 31.2007 167.472 31.2007H168.964C169.859 31.2007 169.996 31.8874 169.996 32.3256C169.996 32.7388 170.086 32.8756 170.455 32.5089C170.959 32.0055 172.015 31.1106 173.597 31.1106C174.629 31.1106 174.905 31.4555 174.927 32.0521C174.949 32.6705 174.927 33.7705 174.88 34.3453C174.806 35.0973 173.982 35.0973 173.637 35.0973Z" fill="white"/>
<path d="M184.874 44.4783C183.795 44.4783 182.695 44.5 182.695 43.6984C182.695 43.4684 182.764 43.2633 182.559 43.2633C182.512 43.2633 182.465 43.2851 182.444 43.3099C181.962 43.7698 181.459 44.6181 179.212 44.6181C176.232 44.6181 175.039 42.4616 175.039 40.7215C175.039 39.5532 175.567 38.4283 176.415 37.7634C177.584 36.8467 179.395 36.6385 181.024 36.6385C181.803 36.6385 182.077 36.6603 182.192 36.6603C182.58 36.6603 182.652 36.4303 182.652 36.0419C182.652 34.6654 182.192 34.2303 180.818 34.2303C179.374 34.2303 179.007 34.8953 178.457 35.2837C178.044 35.5603 177.515 35.3987 177.357 35.3055C176.555 34.8456 176.189 34.6187 175.934 34.2956C175.614 33.8823 175.704 33.4255 175.934 33.0806C176.505 32.0956 178.389 30.9956 181.505 30.9956C185.38 30.9956 186.642 33.1055 186.642 35.697C186.642 36.682 186.551 38.1269 186.551 39.4569C186.551 41.43 186.735 43.2416 186.735 43.3534C186.732 44.3167 186.042 44.4783 184.874 44.4783ZM182.764 39.5687C182.764 39.0187 182.167 39.0871 181.319 39.0871C179.784 39.0871 178.889 39.2487 178.889 40.2554C178.889 41.1503 179.83 41.5388 180.815 41.5388C181.25 41.5388 181.642 41.4704 181.94 41.3337C182.304 41.1535 182.764 40.7402 182.764 39.5687Z" fill="white"/>
<path d="M193.22 30.949C195.031 30.949 195.718 31.7973 196.11 32.3255C196.271 32.5555 196.315 32.714 196.476 32.714C196.613 32.714 196.613 32.3473 196.613 31.7973C196.613 30.7439 196.498 29.1374 196.498 28.3109C196.498 27.0493 197.185 26.866 198.148 26.866C200.463 26.866 200.761 27.186 200.761 28.1493C200.761 28.2177 200.531 32.484 200.531 35.1656C200.531 35.669 200.808 41.5854 200.808 42.9619C200.808 44.3385 200.028 44.4534 199.478 44.4534H198.378C197.437 44.4534 196.818 44.3385 196.818 43.6051V43.1919C196.818 42.8936 196.703 42.6885 196.52 42.8936C195.557 43.9718 195.168 44.6368 192.918 44.6368C189.914 44.6368 188.379 41.5636 188.379 38.1021C188.379 37.117 188.379 36.7504 188.4 36.3588C188.518 33.9755 189.208 30.949 193.22 30.949ZM196.681 37.5303C196.681 37.347 196.681 37.1636 196.66 37.0021C196.57 35.3738 195.995 34.2521 194.252 34.2521C192.235 34.2521 192.188 36.247 192.188 37.6235C192.188 39.345 192.44 41.1317 194.345 41.1317C196.293 41.1286 196.681 39.7303 196.681 37.5303Z" fill="white"/>
<path d="M202.346 37.9405C202.346 36.5173 202.623 35.1905 202.896 34.2707C203.378 32.7792 204.959 30.9677 208.629 30.9677C211.724 30.9677 213.079 32.7326 213.514 33.5592C214.111 34.6374 214.524 36.334 214.524 37.7323C214.524 40.2554 213.812 44.702 208.471 44.702C204.434 44.7051 202.346 42.2535 202.346 37.9405ZM206.749 35.1439C206.404 35.6721 206.246 36.5422 206.246 37.9187C206.246 38.882 206.339 39.7086 206.681 40.2803C206.979 40.8086 207.507 41.1286 208.356 41.1286C209.182 41.1286 209.732 41.0136 210.074 40.5569C210.463 40.0535 210.602 39.1368 210.602 37.5086C210.602 36.4552 210.397 35.7654 210.121 35.3086C209.549 34.3919 208.654 34.3919 208.356 34.3919C207.619 34.4106 207.094 34.6157 206.749 35.1439Z" fill="white"/>
<path d="M224.175 35.0973H222.938C221.792 35.0973 220.645 35.6939 220.577 37.2072C220.555 37.8038 220.555 38.5837 220.555 39.3637C220.555 41.2436 220.645 42.9184 220.645 43.2602C220.645 44.2919 220.232 44.5218 218.262 44.5218C216.978 44.5218 216.472 44.1769 216.472 43.2602C216.472 42.6885 216.587 36.7721 216.587 35.7623C216.587 33.8575 216.519 33.5623 216.519 32.5524C216.519 31.6823 216.817 31.2007 218.01 31.2007H219.502C220.396 31.2007 220.533 31.8874 220.533 32.3256C220.533 32.7388 220.623 32.8756 220.993 32.5089C221.496 32.0055 222.553 31.1106 224.135 31.1106C225.166 31.1106 225.443 31.4555 225.465 32.0521C225.486 32.6705 225.465 33.7705 225.418 34.3453C225.346 35.0973 224.52 35.0973 224.175 35.0973Z" fill="white"/>
<path d="M236.719 43.0335C236.101 43.7916 235.069 44.6399 232.593 44.6399C226.791 44.6399 226.195 40.9267 226.195 37.692C226.195 35.2372 226.997 33.7022 227.661 32.9005C228.348 32.0739 229.448 30.9988 232.27 30.9988C235.983 30.9988 237.909 32.9937 237.909 36.7318C237.909 38.8199 236.946 39.025 235.663 39.025C234.563 39.025 231.971 38.91 230.986 38.91C230.275 38.91 230.231 39.1866 230.231 39.6216C230.231 41.3866 231.838 41.5699 232.524 41.5699C233.326 41.5699 233.991 41.34 234.588 40.6532C234.839 40.3549 235.163 40.0815 235.986 40.6066C236.148 40.6967 236.421 40.8366 236.856 41.1784C237.521 41.7253 237.269 42.3436 236.719 43.0335ZM230.918 36.4055H231.788H233.14C233.851 36.4055 234.01 36.2906 234.01 35.579C234.01 34.7307 233.391 34.1341 231.993 34.1341C230.663 34.1341 230.16 35.0041 230.16 35.6473C230.185 36.3123 230.436 36.4055 230.918 36.4055Z" fill="white"/>
<path d="M240.022 43.1017C239.519 42.6885 239.426 42.3218 239.494 41.9551C239.563 41.6351 239.768 41.1286 240.274 40.6252C240.551 40.3735 240.892 40.1653 241.284 40.1653C241.996 40.1653 243.416 41.3585 244.975 41.3585C245.547 41.3585 246.352 41.0385 246.352 40.3486C246.352 39.4786 244.817 39.3636 243.692 39.0653C241.011 38.3786 239.587 37.232 239.587 34.9854C239.587 32.2789 242.017 30.949 244.447 30.949C246.625 30.949 247.955 31.4306 248.599 31.9806C248.965 32.2572 249.149 32.5772 249.127 32.9439C249.105 33.3789 248.85 34.0439 248.415 34.4789C248.142 34.7306 247.819 34.9823 247.222 34.8673C246.694 34.7523 245.572 34.0874 244.357 34.0874C243.875 34.0874 243.325 34.249 243.325 34.799C243.325 35.1874 243.347 35.5789 245.299 35.9673C246.607 36.2874 250 36.8156 250 40.1187C250 43.4653 247.822 44.7517 244.817 44.7517C242.244 44.7517 240.799 43.7667 240.022 43.1017Z" fill="white"/>
<path d="M84.1092 6.30481H85.7623C86.1787 6.30481 86.3869 6.36696 86.3869 6.48814C86.3869 6.5534 86.157 6.81752 85.7002 7.28362C85.2434 7.74972 84.7804 8.19406 84.3174 8.61977C83.8545 9.04547 83.5282 9.30027 83.3511 9.39038C82.885 9.62654 82.3878 9.74462 81.8564 9.74462C81.5053 9.74462 81.3313 9.64208 81.3313 9.4401C81.3313 9.30027 81.437 9.06101 81.6483 8.7192L82.1982 7.69068C82.5152 7.09407 82.7948 6.71498 83.031 6.55029C83.2672 6.3856 83.6245 6.30481 84.1092 6.30481Z" fill="white"/>
<path d="M70.4047 55.4238H71.8955V58.1355C71.4588 58.4135 70.9507 58.6268 70.3668 58.7753C69.7828 58.9238 69.1893 59 68.5721 59C67.708 59 66.9294 58.8477 66.2315 58.5468C65.5335 58.2459 64.9923 57.827 64.5935 57.2976C64.1994 56.7682 64 56.1665 64 55.5C64 54.8335 64.1994 54.2318 64.5935 53.7024C64.9875 53.173 65.5383 52.7541 66.2362 52.4532C66.9341 52.1523 67.7223 52 68.5958 52C69.308 52 69.9537 52.0952 70.5329 52.2818C71.1169 52.4684 71.6059 52.7465 72 53.1083L71.0077 53.8852C70.362 53.3672 69.5834 53.1083 68.6671 53.1083C68.0688 53.1083 67.5371 53.2073 67.0718 53.4091C66.6065 53.611 66.241 53.8928 65.9798 54.2546C65.7187 54.6164 65.5858 55.0316 65.5858 55.5C65.5858 55.9532 65.7187 56.3607 65.9798 56.7263C66.241 57.0881 66.6065 57.3738 67.0718 57.5832C67.5371 57.7927 68.0641 57.8955 68.6528 57.8955C69.3175 57.8955 69.8967 57.7775 70.4 57.5452V55.4238H70.4047Z" fill="white"/>
<path d="M79 57.911V59H73V52H78.8433V53.089H74.4866V54.9105H78.3507V55.9799H74.4866V57.911H79Z" fill="white"/>
<path d="M80.2842 58.7789C79.7453 58.6302 79.3158 58.4321 79 58.1844L79.4842 57.2013C79.7916 57.4223 80.1705 57.6014 80.6168 57.7424C81.0632 57.8834 81.5137 57.952 81.9642 57.952C82.5242 57.952 82.941 57.872 83.2147 57.7081C83.4884 57.5443 83.6274 57.3309 83.6274 57.0679C83.6274 56.8736 83.5516 56.7136 83.3958 56.5878C83.24 56.4621 83.0463 56.363 82.8105 56.2906C82.5747 56.2182 82.2505 56.1382 81.8421 56.0467C81.2695 55.9248 80.8063 55.7991 80.4484 55.6771C80.0947 55.5552 79.7874 55.3608 79.5347 55.0979C79.2821 54.835 79.1516 54.4806 79.1516 54.031C79.1516 53.6538 79.2653 53.3108 79.4884 53.006C79.7158 52.6973 80.0526 52.4534 80.5116 52.2705C80.9663 52.0876 81.5221 52 82.1832 52C82.6421 52 83.0926 52.0533 83.5389 52.1562C83.9811 52.2591 84.3642 52.4077 84.6884 52.6021L84.2463 53.5852C83.9179 53.4099 83.5726 53.2765 83.2147 53.1851C82.8568 53.0936 82.5074 53.0479 82.1705 53.0479C81.6189 53.0479 81.2063 53.1317 80.941 53.2994C80.6716 53.467 80.5368 53.6919 80.5368 53.97C80.5368 54.1644 80.6126 54.3244 80.7684 54.4463C80.9242 54.5683 81.1179 54.6673 81.3537 54.7397C81.5895 54.8121 81.9137 54.8922 82.3221 54.9836C82.8821 55.1017 83.341 55.2237 83.6989 55.3494C84.0568 55.4752 84.3642 55.6695 84.6168 55.9286C84.8695 56.1877 85 56.5383 85 56.9803C85 57.3575 84.8863 57.6967 84.6632 58.0015C84.4358 58.3064 84.0947 58.5502 83.6358 58.7293C83.1768 58.9122 82.6168 58.9999 81.96 58.9999C81.3832 59.0037 80.8232 58.9275 80.2842 58.7789Z" fill="white"/>
<path d="M87.7317 53.1007H85V52H92V53.1007H89.2683V59H87.7363V53.1007H87.7317Z" fill="white"/>
<path d="M97.1001 57.1929H93.871L93.2353 59H92L94.904 51.1999H96.0851L99 59H97.7466L97.1001 57.1929ZM95.7601 50.4535C95.6481 50.3793 95.5072 50.2658 95.3411 50.1174C95.2436 50.0214 95.1605 49.9472 95.0955 49.8992C95.0304 49.8512 94.969 49.825 94.9076 49.825C94.7776 49.825 94.6729 49.8861 94.5898 50.0039C94.5067 50.1218 94.4634 50.2876 94.4561 50.4928H93.8385C93.8457 50.0388 93.9396 49.6766 94.1202 49.4059C94.3008 49.1353 94.5392 49 94.8354 49C94.9907 49 95.1244 49.0393 95.2363 49.1135C95.3483 49.1877 95.4892 49.3012 95.6553 49.4496C95.7528 49.5456 95.8359 49.6198 95.9009 49.6678C95.9659 49.7158 96.0273 49.742 96.0887 49.742C96.2188 49.742 96.3235 49.6853 96.4066 49.5762C96.4897 49.4627 96.533 49.3099 96.5402 49.1091H97.1579C97.1471 49.5456 97.0495 49.8992 96.8726 50.1698C96.6956 50.4361 96.4572 50.5714 96.161 50.5714C96.0057 50.5626 95.872 50.5277 95.7601 50.4535ZM96.7028 56.0581L95.4856 52.6491L94.2792 56.0581H96.7028Z" fill="white"/>
<path d="M101.952 58.5468C101.346 58.2459 100.868 57.827 100.519 57.2938C100.174 56.7606 100 56.1627 100 55.5C100 54.8373 100.174 54.2394 100.519 53.7062C100.864 53.173 101.342 52.7541 101.952 52.4532C102.559 52.1523 103.244 52 104 52C104.756 52 105.437 52.1523 106.048 52.4532C106.654 52.7541 107.132 53.173 107.481 53.7024C107.826 54.2356 108 54.8335 108 55.5C108 56.1665 107.826 56.7682 107.481 57.2976C107.136 57.8308 106.658 58.2459 106.048 58.5468C105.441 58.8477 104.756 59 104 59C103.24 59 102.559 58.8477 101.952 58.5468ZM105.333 57.5832C105.728 57.3776 106.039 57.0958 106.268 56.7263C106.496 56.3607 106.609 55.9494 106.609 55.4962C106.609 55.043 106.496 54.6317 106.268 54.2661C106.044 53.9004 105.732 53.6148 105.333 53.4091C104.939 53.2035 104.49 53.1045 103.996 53.1045C103.502 53.1045 103.057 53.2073 102.658 53.4091C102.264 53.6148 101.952 53.9004 101.724 54.2661C101.499 54.6317 101.383 55.043 101.383 55.4962C101.383 55.9494 101.495 56.3607 101.724 56.7263C101.948 57.0919 102.26 57.3776 102.658 57.5832C103.053 57.7889 103.502 57.8879 103.996 57.8879C104.494 57.8917 104.939 57.7889 105.333 57.5832Z" fill="white"/>
<path d="M113.68 58.5503C113.154 58.2493 112.743 57.8301 112.447 57.3004C112.148 56.7708 112 56.1687 112 55.5019C112 54.835 112.151 54.233 112.451 53.7033C112.75 53.1736 113.165 52.7545 113.688 52.4534C114.214 52.1524 114.798 52 115.451 52C115.977 52 116.46 52.0991 116.897 52.2934C117.333 52.4877 117.701 52.7697 118 53.1393L117.228 53.9091C116.763 53.3794 116.186 53.1127 115.508 53.1127C115.065 53.1127 114.672 53.2156 114.322 53.4175C113.972 53.6233 113.698 53.9053 113.504 54.2673C113.309 54.6293 113.208 55.0408 113.208 55.5019C113.208 55.9629 113.305 56.3745 113.504 56.7365C113.698 57.0985 113.972 57.3843 114.322 57.5862C114.672 57.792 115.069 57.8911 115.508 57.8911C116.19 57.8911 116.763 57.6205 117.228 57.0832L118 57.8606C117.701 58.2302 117.329 58.5122 116.889 58.7065C116.45 58.9009 115.966 58.9999 115.44 58.9999C114.794 59.0037 114.207 58.8513 113.68 58.5503Z" fill="white"/>
<path d="M120.952 58.5468C120.346 58.2459 119.868 57.827 119.519 57.2938C119.174 56.7606 119 56.1627 119 55.5C119 54.8373 119.174 54.2394 119.519 53.7062C119.864 53.173 120.342 52.7541 120.952 52.4532C121.559 52.1523 122.244 52 123 52C123.756 52 124.437 52.1523 125.048 52.4532C125.654 52.7541 126.132 53.173 126.481 53.7024C126.826 54.2356 127 54.8335 127 55.5C127 56.1665 126.826 56.7682 126.481 57.2976C126.136 57.8308 125.658 58.2459 125.048 58.5468C124.441 58.8477 123.756 59 123 59C122.24 59 121.559 58.8477 120.952 58.5468ZM124.333 57.5832C124.728 57.3776 125.039 57.0958 125.268 56.7263C125.492 56.3607 125.609 55.9494 125.609 55.4962C125.609 55.043 125.496 54.6317 125.268 54.2661C125.044 53.9004 124.732 53.6148 124.333 53.4091C123.939 53.2035 123.49 53.1045 122.996 53.1045C122.502 53.1045 122.057 53.2073 121.658 53.4091C121.264 53.6148 120.952 53.9004 120.724 54.2661C120.499 54.6317 120.383 55.043 120.383 55.4962C120.383 55.9494 120.495 56.3607 120.724 56.7263C120.948 57.0919 121.26 57.3776 121.658 57.5832C122.053 57.7889 122.502 57.8879 122.996 57.8879C123.494 57.8917 123.939 57.7889 124.333 57.5832Z" fill="white"/>
<path d="M135 52V59H133.797L129.455 54.2602V59H128V52H129.203L133.545 56.7398V52H135Z" fill="white"/>
<path d="M137 52H140.112C140.873 52 141.546 52.1449 142.135 52.4346C142.725 52.7243 143.183 53.1353 143.51 53.6639C143.837 54.1924 144 54.807 144 55.5C144 56.193 143.837 56.8037 143.51 57.3361C143.183 57.8647 142.725 58.2757 142.135 58.5654C141.546 58.8551 140.873 59 140.112 59H137V52ZM140.052 57.896C140.574 57.896 141.032 57.7981 141.43 57.6024C141.829 57.4066 142.131 57.1247 142.347 56.7645C142.562 56.4004 142.665 55.9815 142.665 55.5C142.665 55.0185 142.558 54.5996 142.347 54.2355C142.131 53.8714 141.829 53.5934 141.43 53.3976C141.032 53.2019 140.574 53.104 140.052 53.104H138.323V57.8999H140.052V57.896Z" fill="white"/>
<path d="M146.952 58.5468C146.346 58.2459 145.868 57.827 145.519 57.2938C145.174 56.7606 145 56.1627 145 55.5C145 54.8373 145.174 54.2394 145.519 53.7062C145.864 53.173 146.342 52.7541 146.952 52.4532C147.559 52.1523 148.244 52 149 52C149.756 52 150.437 52.1523 151.048 52.4532C151.654 52.7541 152.132 53.173 152.481 53.7024C152.826 54.2356 153 54.8335 153 55.5C153 56.1665 152.826 56.7682 152.481 57.2976C152.136 57.8308 151.658 58.2459 151.048 58.5468C150.441 58.8477 149.756 59 149 59C148.244 59 147.559 58.8477 146.952 58.5468ZM150.333 57.5832C150.728 57.3776 151.039 57.0958 151.268 56.7263C151.492 56.3607 151.609 55.9494 151.609 55.4962C151.609 55.043 151.496 54.6317 151.268 54.2661C151.044 53.9004 150.732 53.6148 150.333 53.4091C149.939 53.2035 149.49 53.1045 148.996 53.1045C148.502 53.1045 148.057 53.2073 147.658 53.4091C147.264 53.6148 146.952 53.9004 146.724 54.2661C146.499 54.6317 146.383 55.043 146.383 55.4962C146.383 55.9494 146.495 56.3607 146.724 56.7263C146.948 57.0919 147.26 57.3776 147.658 57.5832C148.053 57.7889 148.502 57.8879 148.996 57.8879C149.494 57.8917 149.939 57.7889 150.333 57.5832Z" fill="white"/>
<path d="M161.555 59L161.541 54.3607L158.84 58.1974H158.159L155.459 54.4195V58.9961H154V52H155.261L158.528 56.6393L161.735 52H162.991L163 58.9961H161.555V59Z" fill="white"/>
<path d="M164 52H165V59H164V52Z" fill="white"/>
<path d="M174 52V59H172.968L169.244 54.2602V59H168V52H169.032L172.756 56.7398V52H174Z" fill="white"/>
<path d="M177 52H178V59H177V52Z" fill="white"/>
<path d="M184.829 57.3783H181.138L180.412 59H179L182.319 52H183.669L187 59H185.568L184.829 57.3783ZM184.379 56.3598L182.988 53.3005L181.609 56.3598H184.379Z" fill="white"/>
<path d="M188 52H189.311V57.8993H193V59H188V52Z" fill="white"/>
<path d="M197 52H200.112C200.873 52 201.546 52.1449 202.135 52.4346C202.725 52.7243 203.183 53.1353 203.51 53.6639C203.837 54.1924 204 54.807 204 55.5C204 56.193 203.837 56.8037 203.51 57.3361C203.183 57.8647 202.725 58.2757 202.135 58.5654C201.546 58.8551 200.873 59 200.112 59H197V52ZM200.052 57.896C200.574 57.896 201.032 57.7981 201.43 57.6024C201.829 57.4066 202.131 57.1247 202.347 56.7645C202.562 56.4004 202.665 55.9815 202.665 55.5C202.665 55.0185 202.558 54.5996 202.347 54.2355C202.131 53.8714 201.829 53.5934 201.43 53.3976C201.032 53.2019 200.574 53.104 200.052 53.104H198.323V57.8999H200.052V57.896Z" fill="white"/>
<path d="M205 52H207V59H205V52Z" fill="white"/>
<path d="M213.601 55.4238H214.905V58.1355C214.523 58.4135 214.078 58.6268 213.568 58.7753C213.057 58.9238 212.538 59 211.998 59C211.243 59 210.562 58.8477 209.951 58.5468C209.345 58.2459 208.868 57.827 208.519 57.2976C208.174 56.7682 208 56.1665 208 55.5C208 54.8335 208.174 54.2318 208.519 53.7024C208.864 53.173 209.345 52.7541 209.956 52.4532C210.566 52.1523 211.255 52 212.019 52C212.642 52 213.206 52.0952 213.717 52.2818C214.228 52.4684 214.651 52.7465 215 53.1083L214.132 53.8852C213.568 53.3672 212.887 53.1083 212.085 53.1083C211.562 53.1083 211.097 53.2073 210.69 53.4091C210.284 53.611 209.964 53.8928 209.735 54.2546C209.507 54.6164 209.391 55.0316 209.391 55.5C209.391 55.9532 209.507 56.3607 209.735 56.7263C209.964 57.0881 210.284 57.3738 210.69 57.5832C211.097 57.7927 211.558 57.8955 212.073 57.8955C212.654 57.8955 213.161 57.7775 213.601 57.5452V55.4238Z" fill="white"/>
<path d="M217 52H218V59H217V52Z" fill="white"/>
<path d="M221.343 53.1007H219V52H225V53.1007H222.657V59H221.343V53.1007Z" fill="white"/>
<path d="M230.829 57.3783H227.138L226.412 59H225L228.319 52H229.669L233 59H231.568L230.829 57.3783ZM230.379 56.3598L228.988 53.3005L227.609 56.3598H230.379Z" fill="white"/>
<path d="M234 52H235.311V57.8993H239V59H234V52Z" fill="white"/>
<path d="M249 57.911V59H243V52H248.843V53.089H244.487V54.9105H248.351V55.9799H244.487V57.911H249Z" fill="white"/>
<path d="M259 57.911V59H253V52H258.843V53.089H254.487V54.9105H258.351V55.9799H254.487V57.911H259Z" fill="white"/>
<path d="M261.272 53.089V55.2199H264.579V56.3206H261.272V59H260V52H265V53.089H261.272Z" fill="white"/>
<path d="M267 52H268V59H267V52Z" fill="white"/>
<path d="M271.96 58.5503C271.346 58.2493 270.867 57.8301 270.522 57.3004C270.172 56.7708 270 56.1687 270 55.5019C270 54.835 270.177 54.233 270.526 53.7033C270.875 53.1736 271.359 52.7545 271.969 52.4534C272.583 52.1524 273.264 52 274.026 52C274.64 52 275.204 52.0991 275.713 52.2934C276.222 52.4877 276.651 52.7697 277 53.1393L276.1 53.9091C275.557 53.3794 274.884 53.1127 274.093 53.1127C273.576 53.1127 273.117 53.2156 272.709 53.4175C272.301 53.6233 271.981 53.9053 271.754 54.2673C271.527 54.6293 271.409 55.0408 271.409 55.5019C271.409 55.9629 271.523 56.3745 271.754 56.7365C271.981 57.0985 272.301 57.3843 272.709 57.5862C273.117 57.792 273.58 57.8911 274.093 57.8911C274.888 57.8911 275.557 57.6205 276.1 57.0832L277 57.8606C276.651 58.2302 276.218 58.5122 275.704 58.7065C275.191 58.9009 274.627 58.9999 274.013 58.9999C273.256 59.0037 272.57 58.8513 271.96 58.5503Z" fill="white"/>
<path d="M278 52H279V59H278V52Z" fill="white"/>
<path d="M287 57.911V59H282V52H286.869V53.089H283.239V54.9105H286.459V55.9799H283.239V57.911H287Z" fill="white"/>
<path d="M295 52V59H293.796L289.451 54.2602V59H288V52H289.204L293.549 56.7398V52H295Z" fill="white"/>
<path d="M297.734 53.1007H295V52H302V53.1007H299.266V59H297.734V53.1007Z" fill="white"/>
<path d="M309 57.911V59H303V52H308.843V53.089H304.487V54.9105H308.351V55.9799H304.487V57.911H309Z" fill="white"/>
</svg>
