<svg width="41" height="41" viewBox="0 0 41 41" fill="none" xmlns="http://www.w3.org/2000/svg">
<path d="M20.5 21.8667C14.4716 21.8667 9.56667 16.9617 9.56667 10.9333C9.56667 4.90497 14.4716 0 20.5 0C26.5284 0 31.4333 4.90497 31.4333 10.9333C31.4333 16.9617 26.5284 21.8667 20.5 21.8667ZM20.5 2.73333C15.9777 2.73333 12.3 6.41103 12.3 10.9333C12.3 15.4556 15.9777 19.1333 20.5 19.1333C25.0223 19.1333 28.7 15.4556 28.7 10.9333C28.7 6.41103 25.0223 2.73333 20.5 2.73333Z" fill="#0462B4"/>
<path d="M21.0467 16.6729H19.9533C19.1873 16.6698 18.4426 16.4206 17.829 15.9618C17.2155 15.5031 16.7658 14.8593 16.5462 14.1254C16.4908 13.952 16.4707 13.7692 16.4869 13.5878C16.5031 13.4065 16.5554 13.2302 16.6407 13.0693C16.726 12.9085 16.8426 12.7663 16.9836 12.6511C17.1247 12.5359 17.2873 12.4501 17.4619 12.3987C17.6366 12.3472 17.8198 12.3312 18.0007 12.3515C18.1816 12.3718 18.3567 12.4281 18.5156 12.517C18.6745 12.606 18.814 12.7258 18.9259 12.8693C19.0379 13.0129 19.12 13.1775 19.1675 13.3532C19.27 13.699 19.5939 13.9409 19.9533 13.9409H21.0467C21.2643 13.9409 21.4731 13.8544 21.627 13.7005C21.7809 13.5466 21.8673 13.3379 21.8673 13.1202C21.8673 12.9026 21.7809 12.6938 21.627 12.5399C21.4731 12.386 21.2643 12.2995 21.0467 12.2995H19.9533C17.9935 12.2995 16.4 10.7046 16.4 8.7462C16.4 6.78777 17.9935 5.19287 19.9533 5.19287H21.0467C22.5787 5.19287 23.9317 6.16867 24.4169 7.6228C24.4764 7.79372 24.5014 7.97477 24.4905 8.15543C24.4795 8.33609 24.4327 8.51277 24.3529 8.67522C24.2731 8.83767 24.1618 8.98264 24.0255 9.10173C23.8892 9.22081 23.7306 9.31164 23.5589 9.36893C23.3872 9.42622 23.2058 9.44883 23.0253 9.43546C22.8448 9.42209 22.6688 9.373 22.5074 9.29103C22.346 9.20907 22.2026 9.09587 22.0853 8.958C21.968 8.82013 21.8793 8.66034 21.8243 8.4879C21.7704 8.32427 21.6662 8.18184 21.5266 8.08096C21.3869 7.98008 21.2189 7.92592 21.0467 7.9262H19.9533C19.7359 7.9262 19.5273 8.0126 19.3735 8.16638C19.2197 8.32016 19.1333 8.52873 19.1333 8.7462C19.1333 8.96368 19.2197 9.17225 19.3735 9.32603C19.5273 9.47981 19.7359 9.5662 19.9533 9.5662H21.0467C23.0065 9.5662 24.6 11.1611 24.6 13.1195C24.6 15.078 23.0065 16.6729 21.0467 16.6729Z" fill="#0462B4"/>
<path d="M20.5 6.83344C20.1296 6.83344 19.788 6.6831 19.5297 6.4371C19.475 6.36877 19.4067 6.30044 19.3657 6.21844C19.3115 6.14873 19.2699 6.07011 19.2427 5.9861C19.2034 5.90847 19.1753 5.82564 19.1593 5.7401C19.147 5.64444 19.1333 5.56244 19.1333 5.46677C19.1333 5.11144 19.2823 4.7561 19.5297 4.49644C20.0353 3.99077 20.951 3.99077 21.4703 4.49644C21.7163 4.7561 21.8667 5.11144 21.8667 5.46677C21.8667 5.56244 21.853 5.64444 21.838 5.7401C21.8237 5.8259 21.796 5.90892 21.756 5.9861C21.7282 6.06988 21.6867 6.14841 21.633 6.21844C21.5783 6.30044 21.5236 6.36877 21.469 6.4371C21.2107 6.6831 20.8553 6.83344 20.5 6.83344ZM20.5 17.7668C20.1296 17.7668 19.788 17.6164 19.5297 17.3704C19.475 17.3021 19.4067 17.2338 19.3657 17.1518C19.3115 17.0821 19.2699 17.0034 19.2427 16.9194C19.2034 16.8418 19.1753 16.759 19.1593 16.6734C19.147 16.5778 19.1333 16.4958 19.1333 16.4001C19.1333 16.0448 19.2823 15.6894 19.5297 15.4298C20.0353 14.9241 20.951 14.9241 21.4703 15.4298C21.7163 15.6894 21.8667 16.0448 21.8667 16.4001C21.8667 16.4958 21.853 16.5778 21.838 16.6734C21.8237 16.7592 21.796 16.8423 21.756 16.9194C21.7282 17.0032 21.6867 17.0817 21.633 17.1518C21.5783 17.2338 21.5236 17.3021 21.469 17.3704C21.2107 17.6164 20.8553 17.7668 20.5 17.7668ZM23.2333 41.0001H1.36667C1.0042 41.0001 0.656587 40.8561 0.400287 40.5998C0.143988 40.3435 0 39.9959 0 39.6334V27.3334C0 26.9713 0.1435 26.6228 0.400433 26.3672C0.720233 26.046 3.62577 23.2334 6.83333 23.2334C9.49013 23.2334 12.9177 25.2411 14.0698 25.9668H20.5C21.0982 25.9677 21.689 26.0993 22.231 26.3524C22.773 26.6055 23.2531 26.974 23.6378 27.4321C24.0225 27.8902 24.3024 28.4269 24.458 29.0045C24.6136 29.5821 24.6411 30.1867 24.5385 30.7761L35.3229 26.2825C35.9458 26.0222 36.6234 25.9201 37.2954 25.9852C37.9673 26.0503 38.6127 26.2806 39.1741 26.6556C39.7363 27.0293 40.1973 27.5364 40.5159 28.1316C40.8345 28.7268 41.0008 29.3917 41 30.0668C41.0001 30.3057 40.9375 30.5404 40.8186 30.7476C40.6996 30.9548 40.5285 31.1272 40.3221 31.2476L23.9221 40.8142C23.713 40.9359 23.4753 41 23.2333 41.0001ZM2.73333 38.2668H22.863L38.0876 29.3862C37.9815 29.2031 37.8346 29.047 37.6585 28.9297C37.4721 28.8031 37.257 28.7254 37.0327 28.7037C36.8085 28.682 36.5824 28.7169 36.3752 28.8053L23.7609 34.0615C23.5937 34.131 23.4144 34.1667 23.2333 34.1668H12.3C11.9375 34.1668 11.5899 34.0228 11.3336 33.7665C11.0773 33.5102 10.9333 33.1626 10.9333 32.8001C10.9333 32.4376 11.0773 32.09 11.3336 31.8337C11.5899 31.5774 11.9375 31.4334 12.3 31.4334H20.5C20.8519 31.4177 21.1841 31.2668 21.4276 31.0123C21.671 30.7577 21.8069 30.419 21.8069 30.0668C21.8069 29.7145 21.671 29.3759 21.4276 29.1213C21.1841 28.8667 20.8519 28.7158 20.5 28.7001H13.6667C13.3974 28.7001 13.1323 28.6195 12.9082 28.4719C11.8627 27.7749 8.7289 25.9668 6.83333 25.9668C5.34367 25.9668 3.62577 27.1694 2.73333 27.9334V38.2668Z" fill="#0462B4"/>
</svg>
