<svg width="14" height="8" viewBox="0 0 14 8" fill="none" xmlns="http://www.w3.org/2000/svg">
<path id="Vector" d="M0 4C0 4.15184 0.0614583 4.29746 0.170854 4.40483C0.280251 4.5122 0.428624 4.57252 0.583333 4.57252H12.0085L9.50483 7.02975C9.39857 7.13773 9.33978 7.28235 9.34111 7.43246C9.34244 7.58257 9.40378 7.72617 9.51194 7.83232C9.62009 7.93846 9.7664 7.99867 9.91935 7.99998C10.0723 8.00128 10.2196 7.94358 10.3297 7.83929L13.8297 4.4042C13.8836 4.35153 13.9265 4.28891 13.9557 4.21993C13.9849 4.15096 14 4.07699 14 4.00229V4C14 3.92557 13.9848 3.85115 13.9545 3.7813C13.9254 3.71189 13.8826 3.64884 13.8285 3.5958L10.3285 0.160712C10.2185 0.0564235 10.0711 -0.00128279 9.91818 2.16426e-05C9.76523 0.00132607 9.61893 0.0615368 9.51077 0.167686C9.40262 0.273835 9.34127 0.417429 9.33994 0.567541C9.33861 0.717652 9.39741 0.862271 9.50367 0.970249L12.0085 3.42748H0.583333C0.428624 3.42748 0.280251 3.4878 0.170854 3.59517C0.0614583 3.70254 0 3.84816 0 4Z" fill="white"/>
</svg>
