<svg width="68" height="68" viewBox="0 0 68 68" fill="none" xmlns="http://www.w3.org/2000/svg">
<circle cx="34" cy="34" r="34" transform="rotate(90 34 34)" fill="#03BF65"/>
<path d="M41.6703 37.0175C41.3186 36.8427 39.0329 35.794 38.6813 35.6192C38.3296 35.4444 37.978 35.4444 37.6263 35.794C37.2747 36.1436 36.5714 37.1923 36.2197 37.5418C36.0439 37.8914 35.6923 37.8914 35.3406 37.7166C34.1099 37.1923 32.8791 36.4931 31.8241 35.6192C30.945 34.7453 30.0659 33.6966 29.3626 32.6479C29.1868 32.2984 29.3626 31.9488 29.5384 31.774C29.7143 31.5993 29.8901 31.2497 30.2417 31.0749C30.4176 30.9001 30.5934 30.5506 30.5934 30.3758C30.7692 30.201 30.7692 29.8514 30.5934 29.6767C30.4176 29.5019 29.5384 27.4045 29.1868 26.5306C29.011 25.3071 28.6593 25.3071 28.3077 25.3071H27.4286C27.0769 25.3071 26.5494 25.6567 26.3736 25.8315C25.3187 26.8802 24.7912 28.1036 24.7912 29.5019C24.967 31.0749 25.4945 32.6479 26.5494 34.0462C28.4835 36.8427 30.945 39.1149 33.934 40.5131C34.8132 40.8627 35.5164 41.2122 36.3956 41.387C37.2747 41.7366 38.1538 41.7366 39.2087 41.5618C40.4395 41.387 41.4945 40.5131 42.1978 39.4644C42.5494 38.7653 42.5494 38.0662 42.3736 37.367L41.6703 37.0175ZM46.0659 21.1124C39.2087 14.2959 28.1318 14.2959 21.2747 21.1124C15.6484 26.7054 14.5934 35.2697 18.4615 42.0861L16 51L25.3187 48.5531C27.956 49.9513 30.7692 50.6504 33.5824 50.6504C43.2527 50.6504 50.9889 42.9601 50.9889 33.3471C51.1648 28.8027 49.2307 24.4332 46.0659 21.1124ZM41.3186 45.5818C39.0329 46.98 36.3956 47.8539 33.5824 47.8539C30.945 47.8539 28.4835 47.1548 26.1978 45.9313L25.6703 45.5818L20.2198 46.98L21.6264 41.7366L21.2747 41.2122C17.0549 34.221 19.1648 25.4819 26.022 21.1124C32.8791 16.7428 41.6703 19.015 45.8901 25.6567C50.1098 32.4732 48.1758 41.387 41.3186 45.5818Z" fill="white"/>
</svg>
